<svg id="Police_bleu" data-name="Police bleu" xmlns="http://www.w3.org/2000/svg" viewBox="0 0 452.02 80.56"><defs><style>.cls-1{font-size:72px;stroke:#372f84;stroke-miterlimit:10;font-family:PollyRounded-Bold, Polly Rounded;font-weight:700;letter-spacing:0.05em;}.cls-1,.cls-2{fill:#372f84;}.cls-3{fill:#e9a93e;}</style></defs><g id="Sondage"><text class="cls-1" transform="translate(101.81 60.98)">Sondage</text><path class="cls-2" d="M751.92,517.1s0,0,0,0c-7.62,0-16.57,6.75-13,21.4a21.61,21.61,0,0,0,5.16,9.66,17,17,0,0,0,13.9,5.51,16.63,16.63,0,0,0,12.1-6.36,12,12,0,0,0,2.17-11.47,10.74,10.74,0,0,0-10.08-7.58l-1,0c-2.32.15-3.11,1.52-3.31,2.47a2.17,2.17,0,0,0,2.31,2.6l.25,0a5.12,5.12,0,0,1,5.23,5.53,7.68,7.68,0,0,1-3.91,6.41,10.27,10.27,0,0,1-9.34.54,13.58,13.58,0,0,1-8.29-10.67c-1-9.26,3.29-14.82,7.88-18.07" transform="translate(-734.34 -499.55)"/><path class="cls-3" d="M734.34,536.08a26.5,26.5,0,0,0,3.38,13A25.2,25.2,0,0,0,772,558.62l.12-.07c6.87-3.87,13.62-11.46,10-26.1a21.51,21.51,0,0,0-5.16-9.66A16.91,16.91,0,0,0,763,517.28a16.65,16.65,0,0,0-12.11,6.36,12,12,0,0,0-2.17,11.47,10.75,10.75,0,0,0,10.08,7.57l1,0a3.24,3.24,0,0,0,3.32-2.46,2.18,2.18,0,0,0-2.32-2.61l-.25,0a5.12,5.12,0,0,1-5.23-5.53,7.69,7.69,0,0,1,3.92-6.4,10.19,10.19,0,0,1,9.33-.54,13.58,13.58,0,0,1,8.29,10.67c1,9.26-3.29,14.82-7.88,18.07-6,4.24-14.14,5.08-20.49,1.46-10.84-6.19-13.74-15.07-14.2-20C734.34,535.59,734.34,535.84,734.34,536.08Z" transform="translate(-734.34 -499.55)"/></g></svg>